<svg id="Layer_1" data-name="Layer 1" xmlns="http://www.w3.org/2000/svg" viewBox="0 0 351.33 130.27"><defs><style>.cls-1{fill:none;stroke:#2e2f68;stroke-miterlimit:10;stroke-width:0.65px;}.cls-2{fill:#36b785;}.cls-3{fill:#f48337;}.cls-4,.cls-9{fill:#47c6eb;}.cls-5{fill:#714b9d;}.cls-6{fill:#f9d130;}.cls-7{fill:#e52754;}.cls-8{fill:#2e2e67;}.cls-9{font-size:38.06px;font-family:MyriadPro-Regular, Myriad Pro;}.cls-10{fill:#2e2f68;}</style></defs><line class="cls-1" x1="30.5" y1="28.3" x2="63.45" y2="50.67"/><line class="cls-1" x1="70.8" y1="13.48" x2="79.53" y2="39.48"/><line class="cls-1" x1="148.45" y1="29.98" x2="111.49" y2="52.23"/><line class="cls-1" x1="153.94" y1="84.2" x2="103.28" y2="71.87"/><line class="cls-1" x1="128.37" y1="119.77" x2="105.81" y2="94.2"/><line class="cls-1" x1="54.04" y1="99.86" x2="87.76" y2="71.06"/><path class="cls-2" d="M70.8,99.86A15.89,15.89,0,1,1,54.91,84,15.88,15.88,0,0,1,70.8,99.86"/><path class="cls-3" d="M138.87,119.77a10.5,10.5,0,1,1-10.5-10.5,10.5,10.5,0,0,1,10.5,10.5"/><path class="cls-4" d="M163.27,30a14.83,14.83,0,1,1-14.82-14.83A14.83,14.83,0,0,1,163.27,30"/><path class="cls-4" d="M163.27,30a14.83,14.83,0,1,1-14.82-14.83A14.83,14.83,0,0,1,163.27,30"/><path class="cls-5" d="M151.78,65.94A16.1,16.1,0,1,0,167.88,82a16.1,16.1,0,0,0-16.1-16.1"/><path class="cls-6" d="M82.58,13.48A11.79,11.79,0,1,1,70.8,1.7,11.78,11.78,0,0,1,82.58,13.48"/><path class="cls-7" d="M50.67,25.33A25.34,25.34,0,1,1,25.33,0,25.35,25.35,0,0,1,50.67,25.33"/><polygon class="cls-8" points="226.69 45.44 221.62 45.44 221.62 21.88 213.98 45.44 211.37 45.44 203.69 21.88 203.69 45.44 199.63 45.44 199.63 18.53 207.41 18.53 213.19 35.86 218.87 18.53 226.69 18.53 226.69 45.44"/><path class="cls-8" d="M245.48,39.09l4.17.55a8.49,8.49,0,0,1-3.16,4.46,9.52,9.52,0,0,1-5.88,1.75,8.91,8.91,0,0,1-6.83-2.78,10.62,10.62,0,0,1-2.58-7.53,10.91,10.91,0,0,1,2.6-7.47,9,9,0,0,1,7.08-3A8.24,8.24,0,0,1,247.63,28,11.45,11.45,0,0,1,250,35.52l0,.51H236a11.06,11.06,0,0,0,.39,3.26A4.44,4.44,0,0,0,238,41.42a4.65,4.65,0,0,0,2.93.9,4.52,4.52,0,0,0,4.6-3.23m-.28-6a4.91,4.91,0,0,0-1.32-3.51,4.55,4.55,0,0,0-6.4-.09,5.62,5.62,0,0,0-1.49,3.6Z"/><path class="cls-8" d="M263.43,41.93v3.51a16.53,16.53,0,0,1-3.19.43,6.66,6.66,0,0,1-3.2-.72,4.47,4.47,0,0,1-2-2,9.15,9.15,0,0,1-.61-3.85V29h-2.55V25.53h2.81l.42-5.19,3.78-.33v5.52h4.11V29h-4.11v9.72a3.6,3.6,0,0,0,.7,2.55,3.84,3.84,0,0,0,2.64.68c.36,0,.75,0,1.15,0"/><path class="cls-8" d="M286.49,42.66l-.34.07a5.23,5.23,0,0,1-1.08.18,1.29,1.29,0,0,1-1.2-.49,4.57,4.57,0,0,1-.35-2.26V31.89c0-2.52-.56-4.33-1.69-5.38s-3-1.59-5.67-1.59a22.69,22.69,0,0,0-7.44,1.39l-.22.08v3.84L269,30a14.32,14.32,0,0,1,6.46-1.71,4.29,4.29,0,0,1,2.93.81,3.67,3.67,0,0,1,.84,2.74v1.36h-1.95a13.41,13.41,0,0,0-7.56,1.93,6.06,6.06,0,0,0-2.94,5.22,5.26,5.26,0,0,0,1.91,4.16,7.18,7.18,0,0,0,4.79,1.62A10.68,10.68,0,0,0,280,43.59a3.86,3.86,0,0,0,3.8,2.52,10.56,10.56,0,0,0,2.9-.6l.26-.08Zm-8.06-6.58h.77v4.49a7.91,7.91,0,0,1-4.78,2,3.4,3.4,0,0,1-2.35-.78,2.63,2.63,0,0,1-.87-2.08C271.2,37.31,273.64,36.08,278.43,36.08Z"/><polygon class="cls-8" points="216.61 78.38 199.63 78.38 199.63 51.47 204.87 51.47 204.87 73.98 216.61 73.98 216.61 78.38"/><path class="cls-8" d="M233,72l4.16.55A8.53,8.53,0,0,1,234,77a9.57,9.57,0,0,1-5.89,1.75A8.89,8.89,0,0,1,221.27,76a10.62,10.62,0,0,1-2.58-7.53,10.91,10.91,0,0,1,2.6-7.47,9,9,0,0,1,7.08-2.95A8.23,8.23,0,0,1,235.12,61a11.45,11.45,0,0,1,2.38,7.49l0,.52h-14a11,11,0,0,0,.39,3.25,4.44,4.44,0,0,0,1.57,2.13,4.67,4.67,0,0,0,2.93.9A4.53,4.53,0,0,0,233,72m-.29-6a4.92,4.92,0,0,0-1.32-3.51,4.55,4.55,0,0,0-6.4-.09,5.62,5.62,0,0,0-1.49,3.6Z"/><path class="cls-8" d="M260.89,75.6l-.34.08a6.65,6.65,0,0,1-1.09.17,1.29,1.29,0,0,1-1.2-.49,5,5,0,0,1-.34-2.26V64.83c0-2.53-.56-4.33-1.69-5.38s-3-1.58-5.67-1.58a22.65,22.65,0,0,0-7.45,1.39l-.21.07v3.84l.47-.25a14.29,14.29,0,0,1,6.46-1.71,4.27,4.27,0,0,1,2.92.8,3.71,3.71,0,0,1,.85,2.75v1.36h-1.95a13.49,13.49,0,0,0-7.57,1.93,6.06,6.06,0,0,0-2.93,5.22,5.26,5.26,0,0,0,1.9,4.16,7.2,7.2,0,0,0,4.8,1.61,10.64,10.64,0,0,0,6.51-2.51,3.85,3.85,0,0,0,3.8,2.51,10.42,10.42,0,0,0,2.89-.58l.27-.09Zm-12.07-.07a3.45,3.45,0,0,1-2.36-.79,2.63,2.63,0,0,1-.87-2.07c0-2.43,2.44-3.66,7.24-3.66h.77v4.51A8,8,0,0,1,248.82,75.53Z"/><path class="cls-8" d="M269.32,78.38h-4.61V58.47h4.16v4.75a8.4,8.4,0,0,1,2.45-4.06,5,5,0,0,1,3.19-1.28l.61,0v4.83q-3.53,0-4.66,2.19a9.12,9.12,0,0,0-1.14,4.23Z"/><path class="cls-8" d="M295.32,78.38h-4.6V65.94a4.23,4.23,0,0,0-.93-3,3,3,0,0,0-2.25-1,4.07,4.07,0,0,0-3.15,1.54A6.84,6.84,0,0,0,283,68.15V78.38h-4.61V58.47h4.2v4.61q2.21-5,6.19-5a6.82,6.82,0,0,1,4.6,1.65c1.27,1.11,1.9,3,1.9,5.82Z"/><path class="cls-8" d="M303.13,56.14h0a2.3,2.3,0,0,1-2.31-2.3v-.06a2.31,2.31,0,1,1,4.61,0v.06a2.3,2.3,0,0,1-2.3,2.3m2.3,22.24h-4.61V58.47h4.61Z"/><path class="cls-8" d="M327.86,78.38h-4.61V65.94a4.23,4.23,0,0,0-.93-3,3,3,0,0,0-2.24-1,4.07,4.07,0,0,0-3.15,1.54,6.84,6.84,0,0,0-1.36,4.63V78.38H311V58.47h4.2v4.61q2.2-5,6.18-5a6.78,6.78,0,0,1,4.6,1.65c1.27,1.11,1.91,3,1.91,5.82Z"/><path class="cls-8" d="M351.31,57.14v3.43H349.9a5.59,5.59,0,0,0-1.62.21,2.81,2.81,0,0,0-1.36,1.4,5.46,5.46,0,0,1,2.42,4.27,5.28,5.28,0,0,1-2.26,4.35,9.63,9.63,0,0,1-6,1.73,16.51,16.51,0,0,1-3.76-.51A2.06,2.06,0,0,0,335.93,74a1.78,1.78,0,0,0,.68,1.33,3,3,0,0,0,2.07.61h6a7.06,7.06,0,0,1,4.86,1.56,5,5,0,0,1,1.76,3.87A5.49,5.49,0,0,1,348.66,86q-2.66,1.84-7.89,1.84-9.82,0-9.82-5.35,0-2.64,2.95-4A4.35,4.35,0,0,1,332,75.18q0-2.59,3.24-4.12a5.12,5.12,0,0,1-2.82-4.59,5.31,5.31,0,0,1,2.07-4.21q2.07-1.75,6.29-1.75a19.56,19.56,0,0,1,3.92.41,4.55,4.55,0,0,1,4.89-3.78ZM335.87,79.65a2.39,2.39,0,0,0-1,1.7,2.88,2.88,0,0,0,1.65,2.38,10.21,10.21,0,0,0,5.25,1c3.52,0,5.29-.88,5.29-2.64a1.58,1.58,0,0,0-.93-1.48,4.3,4.3,0,0,0-2.11-.5h-4.86a13.86,13.86,0,0,1-3.3-.49m5-9.77c2.5,0,3.74-1.14,3.74-3.43a3,3,0,0,0-.93-2.21,3.73,3.73,0,0,0-2.72-.91,4,4,0,0,0-2.81.94,3.13,3.13,0,0,0-1,2.36,3,3,0,0,0,1,2.35,3.91,3.91,0,0,0,2.73.9"/><text class="cls-9" transform="translate(196.64 112.08)">Hub</text><path class="cls-10" d="M119.53,68.12s5.09-4.73,4.85-9.88l-.3-.43s-1.94,1.16-3.27.91l-.79.49s-.67-.55-1.82.36c0,0-1-1.57-2.06-1.09l.73-.73s-.43-1.45-3.82-3.15a11,11,0,0,1-1.58-2.91l-1.33-.85-.37-2.6s-.72-1-1.51-1a11.84,11.84,0,0,1-.18-1.7s-.67-.06-1.64-2.18A15.13,15.13,0,0,0,105,41.15l-.49-.91.24-.37s1.1,1.82,1.88,2.13c0,0,1-1.28-.06-3.46a3.24,3.24,0,0,1-2.72-.24,7.28,7.28,0,0,0-2.19.79A1.66,1.66,0,0,0,100,38.9s.36-.84-3-.66L98,38l-2-.37a.41.41,0,0,0,.06-.54c-.18-.37-2.43-.55-3.21,1.09,0,0,.84.85-.49,1.33a6.06,6.06,0,0,0-3-1,2,2,0,0,1-.67-1.21,3,3,0,0,0-2.18-.24s-.66-1.09-1.63-.73c0,0-1.34-.73.3-1.58a1.1,1.1,0,0,0-.61-1.33s.55-.06.61-.85a2.05,2.05,0,0,0-2.12.3,2.86,2.86,0,0,0-2.67.07,5.87,5.87,0,0,0-4.85.36H74.38a3,3,0,0,1-3.88-.55,2.54,2.54,0,0,0-1.33,1.46,11,11,0,0,1-2.79,1.39,3.45,3.45,0,0,0-1,2.43,5.89,5.89,0,0,1-3.15,1.81,3.07,3.07,0,0,0-1.15,1.52s-1.15,0-1.82,1.88a9.79,9.79,0,0,0-2.67,3.27s1.4,2.67-1.57,6.79l.73,1.27-.55,1.46s2.48.84,3.33,5.27l4.79,3.39s4.91-1.45,6.49-.12c0,0,6.9-3.7,7.75.3,0,0-.06.67,3.16-.12a2.24,2.24,0,0,1,.6,3.34,2.73,2.73,0,0,1-.48,2.18,10.25,10.25,0,0,1,.3,1.15s4.36,4.12,4.3,6.85l-.42.36s1.21,2.24.79,3.27-1.7.31-1.76,5.7c0,0,2.79,3.94,2.79,5.27,0,0-.43,3.34,1.75,5.4A16,16,0,0,1,89.84,101a1,1,0,0,1,.24,1.57,2.08,2.08,0,0,0,1.82,1.88,6.63,6.63,0,0,1,4.24-.49c2.3.55,4.91-2.18,6.12-4.18l1.45-1.09s1.22-1.57.49-2.6a1.55,1.55,0,0,1,1.15-1s2.85,0,1.7-4.19c0,0-1.09-.72,1.39-1.81a2.79,2.79,0,0,0,1-1.15s3.4-.73,3.76-2.79c0,0-.06-2.67-.06-3.46,0,0,1-.66-.61-1.33a2.07,2.07,0,0,0-.6-1.64s1.21-1.33-.18-2.12a8.64,8.64,0,0,1,3.33-5s1.88-3,4.42-3.45m2,15.35a6.88,6.88,0,0,1-4.19,3.25A1.35,1.35,0,0,0,116.21,88s.67,2.12-.47,3.29a2.88,2.88,0,0,0-.47,2.81,1.8,1.8,0,0,0,.2,1.68s.7.43.74.67a4.61,4.61,0,0,1,2-.67s1.65-3.59,2.82-6.6a8,8,0,0,0,1-3l.28.62s1.17-1.33-.28-3.67c0,0-.5-.12-.54.35"/></svg>