<svg id="Layer_1" data-name="Layer 1" xmlns="http://www.w3.org/2000/svg" viewBox="0 0 269.44 209.07"><defs><style>.cls-1{fill:none;stroke:#fff;stroke-miterlimit:10;stroke-width:0.65px;}.cls-2{fill:#fff;}</style></defs><line class="cls-1" x1="48.96" y1="45.42" x2="101.85" y2="81.32"/><line class="cls-1" x1="113.64" y1="21.63" x2="127.65" y2="63.36"/><line class="cls-1" x1="238.26" y1="48.11" x2="178.94" y2="83.82"/><line class="cls-1" x1="247.07" y1="135.13" x2="165.77" y2="115.34"/><line class="cls-1" x1="206.03" y1="192.22" x2="169.83" y2="151.18"/><line class="cls-1" x1="86.74" y1="160.26" x2="140.86" y2="114.04"/><path class="cls-2" d="M113.64,160.26a25.5,25.5,0,1,1-25.55-25.45h0a25.48,25.48,0,0,1,25.5,25.45Z"/><path class="cls-2" d="M222.88,192.22A16.85,16.85,0,1,1,206,175.36a16.85,16.85,0,0,1,16.85,16.86Z"/><path class="cls-2" d="M262,48.15a23.8,23.8,0,1,1-23.8-23.8h0A23.79,23.79,0,0,1,262,48.15Z"/><path class="cls-2" d="M262,48.15a23.8,23.8,0,1,1-23.8-23.8h0A23.79,23.79,0,0,1,262,48.15Z"/><path class="cls-2" d="M243.6,105.83a25.84,25.84,0,1,0,25.84,25.83v-.06a25.84,25.84,0,0,0-25.84-25.84h0Z"/><path class="cls-2" d="M132.55,21.63a18.93,18.93,0,1,1-18.94-18.9h0a18.91,18.91,0,0,1,18.91,18.9Z"/><path class="cls-2" d="M81.33,40.65A40.67,40.67,0,1,1,40.65,0h0A40.67,40.67,0,0,1,81.33,40.65Z"/><path class="cls-2" d="M191.85,109.32s8.17-7.59,7.78-15.85l-.48-.69s-3.11,1.86-5.25,1.46l-1.27.78s-1.07-.88-2.92.58c0,0-1.6-2.52-3.3-1.75l1.17-1.17s-.69-2.33-6.13-5.05A17.8,17.8,0,0,1,178.91,83l-2.13-1.37-.6-4.17s-1.15-1.61-2.42-1.61a19.16,19.16,0,0,1-.29-2.72s-1.07-.1-2.63-3.5A24.55,24.55,0,0,0,168.53,66l-.79-1.46.39-.59s1.76,2.92,3,3.41c0,0,1.61-2.05-.09-5.55a5.23,5.23,0,0,1-4.37-.38,11.79,11.79,0,0,0-3.51,1.26,2.67,2.67,0,0,0-2.67-.3s.58-1.35-4.81-1.06l1.6-.38-3.21-.6a.66.66,0,0,0,.1-.87c-.29-.59-3.9-.88-5.15,1.75,0,0,1.35,1.37-.79,2.14a9.72,9.72,0,0,0-4.81-1.61,3.21,3.21,0,0,1-1.08-1.94,4.83,4.83,0,0,0-3.5-.38s-1.06-1.75-2.61-1.17c0,0-2.15-1.18.48-2.54a1.77,1.77,0,0,0-1-2.14s.88-.09,1-1.36a3.3,3.3,0,0,0-3.4.48,4.62,4.62,0,0,0-4.29.11,9.42,9.42,0,0,0-7.78.58h-1.86a4.81,4.81,0,0,1-6.23-.88A4.06,4.06,0,0,0,111,54.9a17.22,17.22,0,0,1-4.48,2.23,5.54,5.54,0,0,0-1.61,3.9,9.39,9.39,0,0,1-5,2.91A4.89,4.89,0,0,0,98,66.38s-1.84,0-2.92,3a15.78,15.78,0,0,0-4.28,5.25s2.24,4.29-2.52,10.9l1.17,2-.88,2.34s4,1.35,5.34,8.46l7.69,5.44s7.88-2.33,10.41-.19c0,0,11.08-5.94,12.44.48,0,0-.1,1.07,5.07-.19a3.59,3.59,0,0,1,1.27,4.92,3.19,3.19,0,0,1-.31.44,4.31,4.31,0,0,1-.77,3.49,17.4,17.4,0,0,1,.49,1.85s7,6.61,6.9,11l-.68.58s1.94,3.6,1.27,5.25-2.73.5-2.82,9.15c0,0,4.47,6.32,4.47,8.45,0,0-.69,5.36,2.81,8.67a25.48,25.48,0,0,1,2,4.38,1.6,1.6,0,0,1,.63,2.18,1.2,1.2,0,0,1-.25.34,3.34,3.34,0,0,0,2.92,3,10.66,10.66,0,0,1,6.81-.79c3.69.89,7.88-3.5,9.82-6.71l2.33-1.75s2-2.51.78-4.17a2.5,2.5,0,0,1,1.85-1.6s4.57,0,2.73-6.73c0,0-1.75-1.15,2.23-2.9a4.55,4.55,0,0,0,1.6-1.85s5.46-1.17,6-4.48c0,0-.1-4.28-.1-5.55,0,0,1.61-1.06-1-2.13a3.3,3.3,0,0,0-1-2.63s1.94-2.14-.29-3.41a13.87,13.87,0,0,1,5.34-8s3-4.82,7.1-5.54ZM195,134a11.08,11.08,0,0,1-6.73,5.21,2.17,2.17,0,0,0-1.76,2s1.07,3.4-.76,5.28A4.62,4.62,0,0,0,185,151a2.87,2.87,0,0,0,.32,2.69s1.12.69,1.19,1.08a7.47,7.47,0,0,1,3.21-1.08s2.65-5.76,4.52-10.59a12.86,12.86,0,0,0,1.61-4.81l.45,1s1.88-2.13-.45-5.89c0,0-.8-.19-.87.56Z"/></svg>